<svg height="40" viewBox="0 0 31 40" width="31" xmlns="http://www.w3.org/2000/svg"><g fill="none"><path d="m10.1579085 15.8333769c0-5.99999999 4.8332898-10.83328975 10.8332898-10.83328975h.8332897c.0001743-2.83346406-2.1665359-5.00008715-4.9999128-5.00008715h-11.74291943c-2.83328976 0-4.99991285 2.16662309-4.99991285 5v35l10.87145968-10 10.8714597 10v-13.3333333c-.3333333 0-.4999564 0-.8332898 0-6.0000871 0-10.833464-4.8333769-10.833464-10.8332898z" fill="#c6cbcf"/><path d="m20.9912854 6.66666667c-5 0-9.1667102 4.16662313-9.1667102 9.16671023 0 5.0000872 4.1667102 9.1666231 9.1667102 9.1666231s9.1667102-4.1666231 9.1667102-9.1667102c0-5.0000872-4.1667102-9.16662313-9.1667102-9.16662313zm5.8332898 10.00000003h-11.6666667v-1.6666667h11.6666667z" fill="#d43372"/></g></svg>