<svg height="23" viewBox="0 0 22 23" width="22" xmlns="http://www.w3.org/2000/svg"><path d="m21.6645 20.9368596-5.3263571-5.6898771c1.3695-1.6721404 2.1198571-3.7760351 2.1198571-5.96628075 0-5.11729824-4.0535-9.28070175-9.03571429-9.28070175-4.98221428 0-9.03571428 4.16340351-9.03571428 9.28070175 0 5.11729825 4.0535 9.28070175 9.03571428 9.28070175 1.87039289 0 3.65278569-.5794386 5.17667859-1.6794035l5.3668214 5.7330526c.2243214.2392807.5260357.3712281.8493572.3712281.3060357 0 .5963571-.1198421.81675-.3377368.4682857-.4628246.4832142-1.2302983.0326071-1.7116843zm-12.24221429-18.51580697c3.68264289 0 6.67857139 3.0771579 6.67857139 6.85964912 0 3.78249125-2.9959285 6.85964915-6.67857139 6.85964915-3.68264285 0-6.67857142-3.0771579-6.67857142-6.85964915 0-3.78249122 2.99592857-6.85964912 6.67857142-6.85964912z" fill="#8c8c8c"/></svg>