<svg height="20" viewBox="0 0 21 20" width="21" xmlns="http://www.w3.org/2000/svg" xmlns:xlink="http://www.w3.org/1999/xlink"><mask id="a" fill="#fff"><path d="m0 0h11v20h-11z" fill="#fff" fill-rule="evenodd"/></mask><g fill="none" fill-rule="evenodd"><path d="m10.5216843.52402356-.0001548-.00036667c-.0132973-.03154252-.0567465-.03154252-.0702105.00039483l-2.78507224 6.59066339-.30040582.02580724-6.82954968.58671256c-.03421501.00294823-.04785646.04493324-.02233514.0670162l5.40935412 4.68668329-1.62068462 6.9705174c-.00759677.0326661.02784756.0584225.05681368.0409973l6.1276066-3.6954458.2582173.1557261 5.8702476 3.5402385c.0283383.0171679.0636264-.0084538.0559497-.0415404l-1.6206802-6.9704984.2278921-.1974401 5.1806317-4.48837346c.0248798-.02152773.0110839-.06389672-.0224516-.06679301l-7.1301048-.61253265z" fill="#e2e2e2" fill-rule="nonzero" stroke="#dadada"/><g mask="url(#a)"><path d="m10.9822622.32942647 2.6677084 6.31400733 6.8296782.58672362c.4736851.04090917.6663888.63193901.3068188.94306401l-5.1803927 4.48816647 1.5523953 6.6768071c.1076557.4639961-.3950965.828949-.8020351.5824174l-5.8693892-3.5397197-5.86938926 3.5397197c-.40801514.245455-.90969074-.1194978-.80203504-.5824174l1.55239533-6.6768071-5.18146928-4.48924303c-.35957007-.311125-.1679429-.90215484.30681877-.94306401l6.82967818-.58672361 2.66770847-6.31293078c.18516783-.43923529.80634123-.43923529.99150913 0z" fill="#ffa30f" fill-rule="nonzero"/></g></g></svg>