<svg height="20" viewBox="0 0 21 20" width="21" xmlns="http://www.w3.org/2000/svg"><path d="m88.5216843.52402356-.0001548-.00036667c-.0132973-.03154252-.0567465-.03154252-.0702105.00039483l-2.7850722 6.59066339-.3004059.02580724-6.8295496.58671256c-.0342151.00294823-.0478565.04493324-.0223352.0670162l5.4093541 4.68668329-1.6206846 6.9705174c-.0075968.0326661.0278476.0584225.0568137.0409973l6.1276066-3.6954458.2582173.1557261 5.8702476 3.5402385c.0283383.0171679.0636264-.0084538.0559497-.0415404l-1.6206802-6.9704984.2278921-.1974401 5.1806317-4.48837346c.0248798-.02152773.0110839-.06389672-.0224516-.06679301l-7.1301048-.61253265z" fill="#e2e2e2" stroke="#dadada" transform="translate(-78)"/></svg>