<svg height="20" viewBox="0 0 21 20" width="21" xmlns="http://www.w3.org/2000/svg"><path d="m10.5216843.52402356-.0001548-.00036667c-.0132973-.03154252-.0567465-.03154252-.0702105.00039483l-2.78507224 6.59066339-.30040582.02580724-6.82954968.58671256c-.03421501.00294823-.04785646.04493324-.02233514.0670162l5.40935412 4.68668329-1.62068462 6.9705174c-.00759677.0326661.02784756.0584225.05681368.0409973l6.1276066-3.6954458.2582173.1557261 5.8702476 3.5402385c.0283383.0171679.0636264-.0084538.0559497-.0415404l-1.6206802-6.9704984.2278921-.1974401 5.1806317-4.48837346c.0248798-.02152773.0110839-.06389672-.0224516-.06679301l-7.1301048-.61253265z" fill="#ffa30f" stroke="#ff930f"/></svg>